# xmcd CD database file generated by OrangeCD 4.3
#
# Track frame offsets:
#	150
#	2409
#	20963
#	37766
#	55025
#	68125
#	84351
#	99809
#	117199
#	131521
#	150915
#	166946
#	182969
#	201435
#	214539
#	233042
#	258034
#
# Disc length: 3523 seconds
#
# Revision: 0
# Processed by: cddbd v1.4PL0 Copyright (c) Steve Scherf et al.
# Submitted via: OrangeCD 4.3
#
DISCID=c90dc111
DTITLE=Mr. Jokes - Till I Die
DYEAR=1900
DGENRE=Blues
TTITLE0=Intro
TTITLE1=Till I Die
TTITLE2=Criminal Walk
TTITLE3=Wanting You
TTITLE4=Bringing Fear 2 Bristol
TTITLE5=Gangster's and Player's Remix
TTITLE6=Jokesaveli
TTITLE7=Be My Cutie
TTITLE8=Down For Mine
TTITLE9=I Can Be Your Sancho
TTITLE10=Born and Raised
TTITLE11=Will U Be Mine?
TTITLE12=Don't Front
TTITLE13=Roll Like A Criminal
TTITLE14=Calling Out Lames
TTITLE15=Gimme All U Got
TTITLE16=Say Goodnight 2 Tha Bad Guy
EXTD=
EXTT0=
EXTT1=
EXTT2=
EXTT3=
EXTT4=
EXTT5=
EXTT6=
EXTT7=
EXTT8=
EXTT9=
EXTT10=
EXTT11=
EXTT12=
EXTT13=
EXTT14=
EXTT15=
EXTT16=
PLAYORDER=
